<?xml version="1.0" encoding="UTF-8" standalone="no"?>
<svg
   xmlns:dc="http://purl.org/dc/elements/1.1/"
   xmlns:cc="http://creativecommons.org/ns#"
   xmlns:rdf="http://www.w3.org/1999/02/22-rdf-syntax-ns#"
   xmlns:svg="http://www.w3.org/2000/svg"
   xmlns="http://www.w3.org/2000/svg"
   xmlns:sodipodi="http://sodipodi.sourceforge.net/DTD/sodipodi-0.dtd"
   xmlns:inkscape="http://www.inkscape.org/namespaces/inkscape"
   id="svg903"
   version="1.1"
   viewBox="0 0 210 297"
   height="297mm"
   width="210mm"
   sodipodi:docname="logo Bee'N'Me transparent.svg"
   inkscape:version="0.92.2 (5c3e80d, 2017-08-06)">
  <sodipodi:namedview
     pagecolor="#ffffff"
     bordercolor="#666666"
     borderopacity="1"
     objecttolerance="10"
     gridtolerance="10"
     guidetolerance="10"
     inkscape:pageopacity="0"
     inkscape:pageshadow="2"
     inkscape:window-width="1920"
     inkscape:window-height="1001"
     id="namedview1426"
     showgrid="false"
     inkscape:zoom="0.69308361"
     inkscape:cx="396.85039"
     inkscape:cy="561.25984"
     inkscape:window-x="-9"
     inkscape:window-y="-9"
     inkscape:window-maximized="1"
     inkscape:current-layer="svg903" />
  <defs
     id="defs897" />
  <metadata
     id="metadata900">
    <rdf:RDF>
      <cc:Work
         rdf:about="">
        <dc:format>image/svg+xml</dc:format>
        <dc:type
           rdf:resource="http://purl.org/dc/dcmitype/StillImage" />
        <dc:title></dc:title>
      </cc:Work>
    </rdf:RDF>
  </metadata>
  <g
     id="g3278"
     transform="translate(-9.4908953,-65.768477)">
    <g
       id="g1923">
      <g
         id="text1495"
         style="font-style:normal;font-weight:normal;font-size:10.58333302px;line-height:1.25;font-family:sans-serif;letter-spacing:0px;word-spacing:0px;fill:none;fill-opacity:1;stroke:#151313;stroke-width:0.36500001;stroke-miterlimit:4;stroke-dasharray:none;stroke-opacity:1"
         aria-label="L'hôtel Nature">
        <path
           inkscape:connector-curvature="0"
           id="path3217"
           style="font-style:normal;font-variant:normal;font-weight:normal;font-stretch:normal;font-family:'Berlin Sans FB Demi';-inkscape-font-specification:'Berlin Sans FB Demi';fill:none;stroke:#151313;stroke-width:0.36500001;stroke-miterlimit:4;stroke-dasharray:none;stroke-opacity:1"
           d="m 78.243347,156.40012 q -0.444417,0 -1.157552,-0.0207 -0.930176,-0.0207 -1.157552,-0.0258 l -1.545125,-0.0207 q -0.232544,0.005 -0.666626,-0.0207 -0.149862,-0.0258 -0.149862,-0.1602 0,-0.56327 0.0155,-1.68465 0.02067,-1.12654 0.02067,-1.68982 0,-0.59944 -0.03617,-1.79317 -0.03617,-1.19889 -0.03617,-1.79834 0,-0.11369 0.155029,-0.11369 0.155029,0 0.45992,0.0155 0.310059,0.0155 0.45992,0.0155 0.170533,0 0.506429,-0.0155 0.335897,-0.0207 0.506429,-0.0207 0.07752,0 0.07235,0.0982 l -0.0052,0.0672 q -0.06201,0.97152 -0.139527,2.91972 l -0.0052,1.36426 q 0,0.66145 0.0052,0.96635 0.0052,0.062 0.01034,0.12402 0.0052,0.062 0.07751,0.0775 0.0052,0 0.134359,0 0.465088,0 1.390096,-0.0465 0.930176,-0.0517 1.395264,-0.0517 0.139526,0 0.139526,0.11885 0,0.88367 -0.129191,1.52446 -0.02584,0.13436 -0.108521,0.1602 -0.02584,0.0103 -0.211873,0.0103 z" />
        <path
           inkscape:connector-curvature="0"
           id="path3219"
           style="font-style:normal;font-variant:normal;font-weight:normal;font-stretch:normal;font-family:'Berlin Sans FB Demi';-inkscape-font-specification:'Berlin Sans FB Demi';fill:none;stroke:#151313;stroke-width:0.36500001;stroke-miterlimit:4;stroke-dasharray:none;stroke-opacity:1"
           d="m 80.878845,149.99224 q 0,0.85783 -0.377238,1.86552 -0.03617,0.093 -0.118856,0.10336 -0.124023,0.0207 -0.335897,0.0207 -0.149861,0 -0.299723,-0.0207 -0.222208,-0.031 -0.397908,-0.96119 -0.139527,-0.73897 -0.139527,-1.16272 v -0.63562 q 0,-0.11885 0.06201,-0.13952 0.08785,-0.031 0.738973,-0.031 0.702799,0 0.775146,0.031 0.09302,0.0413 0.09302,0.93017 z" />
        <path
           inkscape:connector-curvature="0"
           id="path3221"
           style="font-style:normal;font-variant:normal;font-weight:normal;font-stretch:normal;font-family:'Berlin Sans FB Demi';-inkscape-font-specification:'Berlin Sans FB Demi';fill:none;stroke:#151313;stroke-width:0.36500001;stroke-miterlimit:4;stroke-dasharray:none;stroke-opacity:1"
           d="m 86.862976,152.56573 -0.01033,3.56567 q 0,0.18087 -0.144694,0.20154 -0.165365,0.0207 -0.754476,0.0207 -0.568441,0 -0.79065,-0.0413 -0.170532,-0.031 -0.170532,-0.22221 0,-0.44441 0.0155,-1.33842 0.0155,-0.894 0.0155,-1.33842 0,-0.60461 -0.61495,-0.60461 -0.206705,0 -0.485758,0.16536 -0.304891,0.18087 -0.304891,0.37724 v 1.27641 q 0,0.24805 0.01033,0.74931 0.01034,0.49609 0.01034,0.74414 0,0.1912 -0.160197,0.21187 -0.160197,0.0207 -0.89917,0.0207 -0.423747,0 -0.609782,-0.0413 -0.186035,-0.0413 -0.186035,-0.18087 0,-0.40824 0.0052,-1.22473 0.0052,-0.82165 0.0052,-1.2299 0,-1.68982 -0.03617,-2.79569 -0.0155,-0.38757 -0.02584,-0.77515 -0.02584,-0.44958 -0.09302,-0.76998 -0.0155,-0.0672 -0.0155,-0.0982 0,-0.0775 0.07751,-0.10336 0.160197,-0.0465 0.470256,-0.0568 0.413411,-0.0155 0.480591,-0.0258 0.935343,-0.10852 0.935343,-0.10852 0.08268,0 0.08268,0.10852 0,0.16537 -0.02067,0.44959 -0.02067,0.33073 -0.02067,0.44958 -0.03101,1.16789 -0.03101,1.84485 0,0.10335 0.05168,0.10335 0.01033,0 0.26355,-0.18086 0.299723,-0.21188 0.573608,-0.3359 0.408244,-0.18087 0.790649,-0.18087 0.661459,0 1.105876,0.34623 0.480591,0.37207 0.480591,1.01803 z" />
        <path
           inkscape:connector-curvature="0"
           id="path3223"
           style="font-style:normal;font-variant:normal;font-weight:normal;font-stretch:normal;font-family:'Berlin Sans FB Demi';-inkscape-font-specification:'Berlin Sans FB Demi';fill:none;stroke:#151313;stroke-width:0.36500001;stroke-miterlimit:4;stroke-dasharray:none;stroke-opacity:1"
           d="m 92.671407,153.76979 q 0,1.17822 -0.72347,1.91203 -0.718303,0.7338 -1.891358,0.7338 -1.136881,0 -1.870687,-0.72347 -0.733805,-0.72347 -0.733805,-1.86035 0,-1.19889 0.7028,-1.94303 0.702799,-0.74931 1.901692,-0.74931 1.167888,0 1.891358,0.73381 0.72347,0.72863 0.72347,1.89652 z m -1.694987,0 q 0,-0.40824 -0.253215,-0.7183 -0.253214,-0.31523 -0.656291,-0.31523 -0.408243,0 -0.671793,0.3204 -0.248047,0.29972 -0.248047,0.71313 0,0.41858 0.248047,0.7183 0.26355,0.3204 0.671793,0.3204 0.403077,0 0.666626,-0.3204 0.24288,-0.29972 0.24288,-0.7183 z m 0.05684,-2.97139 q -0.26355,0 -1.054199,-0.96119 l -0.04134,0.031 q -0.09302,0.21704 -0.408243,0.54777 -0.3514,0.36174 -0.542603,0.36174 -0.0052,0 -0.45992,-0.17054 -0.3514,-0.13436 -0.3514,-0.16019 0,-0.0258 0.05684,-0.093 0.330729,-0.37207 0.661458,-0.74414 0.408244,-0.49093 0.532268,-0.83199 0.03617,-0.0982 0.129191,-0.0982 h 0.89917 q 0.08785,0 0.118855,0.0982 0.108521,0.34106 0.454753,0.75964 0.413412,0.43925 0.831991,0.90951 -0.01034,0.0155 -0.397909,0.18603 -0.387573,0.16537 -0.428914,0.16537 z" />
        <path
           inkscape:connector-curvature="0"
           id="path3225"
           style="font-style:normal;font-variant:normal;font-weight:normal;font-stretch:normal;font-family:'Berlin Sans FB Demi';-inkscape-font-specification:'Berlin Sans FB Demi';fill:none;stroke:#151313;stroke-width:0.36500001;stroke-miterlimit:4;stroke-dasharray:none;stroke-opacity:1"
           d="m 96.759013,154.79815 q 0,0.15503 -0.04134,0.47026 -0.03617,0.31522 -0.03617,0.46509 0,0.14469 -0.03101,0.18603 -0.03101,0.0413 -0.170532,0.11886 -0.666626,0.3669 -1.477946,0.3669 -1.493449,0 -1.493449,-1.14205 0,-0.34106 0.02584,-1.02319 0.02584,-0.6873 0.02584,-1.02836 0,-0.22738 -0.26355,-0.22738 -0.02067,0 -0.06718,0 -0.04651,0.005 -0.06718,0.005 -0.19637,0 -0.19637,-0.13953 0,-0.0827 0.01033,-0.25321 0.0155,-0.17054 0.0155,-0.25322 0,-0.10852 -0.0155,-0.33073 -0.01033,-0.22221 -0.01033,-0.33073 0,-0.10335 0.330729,-0.11369 0.186035,-0.005 0.201538,-0.10335 0.03101,-0.19637 0.02067,-0.62012 -0.02067,-0.66662 -0.02067,-0.63562 0,-0.59944 0.113688,-0.59944 0.139526,0 0.397909,0.062 0.294555,0.0672 0.408243,0.0775 0.26355,0.0362 0.795817,0.0982 0.129192,0.0103 0.129192,0.0878 0,0.20671 -0.03617,0.62528 -0.03101,0.41858 -0.03101,0.63046 0,0.25321 0.149862,0.25321 0.180867,0 0.54777,-0.0155 0.366903,-0.0155 0.552938,-0.0155 0.113688,0 0.113688,0.0775 0,0.11886 -0.02584,0.35657 -0.02584,0.23771 -0.02584,0.35656 0,0.12403 0.0052,0.36174 0.0052,0.23771 0.0052,0.36173 0,0.10853 -0.149862,0.10853 -0.103353,0 -0.346232,-0.005 -0.242879,-0.0103 -0.346232,-0.0103 h -0.387573 q -0.07751,0 -0.07751,0.22738 0,0.12402 0,0.3669 0.0052,0.24805 0.0052,0.3669 0,0.43409 0.09819,0.59945 0.139526,0.22221 0.54777,0.22221 0.129191,0 0.366903,-0.0568 0.242879,-0.062 0.341064,-0.062 0.108521,0 0.108521,0.11369 z" />
        <path
           inkscape:connector-curvature="0"
           id="path3227"
           style="font-style:normal;font-variant:normal;font-weight:normal;font-stretch:normal;font-family:'Berlin Sans FB Demi';-inkscape-font-specification:'Berlin Sans FB Demi';fill:none;stroke:#151313;stroke-width:0.36500001;stroke-miterlimit:4;stroke-dasharray:none;stroke-opacity:1"
           d="m 102.04551,153.50624 q 0,0.52193 -0.3359,0.59428 -0.0568,0.0103 -1.0697,0.11369 -0.60978,0.0672 -1.819009,0.16019 0.07235,0.3359 0.43925,0.5116 0.299723,0.1447 0.682129,0.1447 0.45992,0 0.92501,-0.24805 0.19637,-0.12402 0.39274,-0.24805 0.10852,0.0517 0.36173,0.5271 0.25839,0.47542 0.25839,0.60462 0,0.0362 -0.0775,0.11885 -0.63045,0.67696 -1.958535,0.67696 -1.2299,0 -1.984375,-0.7183 -0.775147,-0.72864 -0.775147,-1.9482 0,-1.18856 0.692464,-1.9482 0.713135,-0.78548 1.891358,-0.78548 0.992185,0 1.684655,0.72347 0.69246,0.72347 0.69246,1.72082 z m -1.80867,-0.31523 q 0,-0.32039 -0.22738,-0.56327 -0.227377,-0.24288 -0.542603,-0.24288 -0.325562,0 -0.537435,0.27389 -0.196371,0.25321 -0.196371,0.59428 0,0.13952 0.144694,0.13952 0.382406,0 1.188555,-0.11885 0.17054,-0.0258 0.17054,-0.0827 z" />
        <path
           inkscape:connector-curvature="0"
           id="path3229"
           style="font-style:normal;font-variant:normal;font-weight:normal;font-stretch:normal;font-family:'Berlin Sans FB Demi';-inkscape-font-specification:'Berlin Sans FB Demi';fill:none;stroke:#151313;stroke-width:0.36500001;stroke-miterlimit:4;stroke-dasharray:none;stroke-opacity:1"
           d="m 104.50531,153.20135 q 0,1.41077 0.0103,2.16524 0,0.11886 0.0155,0.40825 0.0155,0.26355 0.0155,0.40824 0,0.10852 -0.12919,0.12919 -0.23254,0.0413 -0.83716,0.0413 -0.62012,0 -0.79065,-0.0413 -0.11369,-0.0258 -0.12919,-0.13953 0,-0.0155 0,-0.2222 0,-0.45992 0.0103,-1.3746 0.0103,-0.91984 0.0103,-1.37459 0,-2.17041 0.005,-1.97921 -0.0155,-1.14205 -0.12919,-1.96887 -0.0103,-0.0568 -0.0103,-0.0878 0,-0.11369 0.13436,-0.11369 h 1.84485 q 0.12919,0 0.11886,0.10852 l -0.005,0.093 q -0.13436,2.23242 -0.13436,3.94808 z" />
        <path
           inkscape:connector-curvature="0"
           id="path3231"
           style="font-style:normal;font-variant:normal;font-weight:normal;font-stretch:normal;font-family:'Berlin Sans FB Demi';-inkscape-font-specification:'Berlin Sans FB Demi';fill:none;stroke:#151313;stroke-width:0.36500001;stroke-miterlimit:4;stroke-dasharray:none;stroke-opacity:1"
           d="m 115.05247,149.22226 q 0,0.58912 -0.0517,1.77251 -0.0465,1.17822 -0.0465,1.7725 v 3.40547 q 0,0.13953 -0.14986,0.13953 -0.12402,0 -0.37724,0.0103 -0.24804,0.0103 -0.37207,0.0103 -0.13436,0 -0.40307,-0.0207 -0.26872,-0.0207 -0.40308,-0.0207 -0.093,0 -0.22221,-0.17053 -0.37207,-0.50126 -1.67431,-2.22209 -0.35657,-0.48059 -1.08521,-1.41593 -0.0207,-0.031 -0.0775,-0.062 -0.0413,0.0362 -0.0413,0.11368 0,0.59945 0.031,1.79834 0.0362,1.1989 0.0362,1.79834 0,0.18087 -0.13952,0.18087 h -1.78801 q -0.14986,0 -0.14986,-0.1602 0,-0.5581 0.0517,-1.68465 0.0568,-1.12654 0.0568,-1.68982 0,-0.59428 -0.0517,-1.77767 -0.0465,-1.18339 -0.0465,-1.7725 0,-0.11369 0.20154,-0.11369 0.29972,0 0.73897,-0.0413 0.10335,-0.0103 0.40824,-0.0672 0.25838,-0.0465 0.40825,-0.0465 0.062,0 0.1912,0.17569 l 1.92753,2.64067 q 0.25838,0.35657 0.78031,1.04386 0.12919,0.1602 0.22221,0.1602 0.0672,0 0.0672,-0.40307 0,-0.54261 -0.062,-1.63298 -0.0568,-1.09037 -0.0568,-1.63814 0,-0.19121 0.10852,-0.19121 0.31005,0 0.93534,-0.0258 0.62528,-0.0258 0.93534,-0.0258 0.0982,0 0.0982,0.16019 z" />
        <path
           inkscape:connector-curvature="0"
           id="path3233"
           style="font-style:normal;font-variant:normal;font-weight:normal;font-stretch:normal;font-family:'Berlin Sans FB Demi';-inkscape-font-specification:'Berlin Sans FB Demi';fill:none;stroke:#151313;stroke-width:0.36500001;stroke-miterlimit:4;stroke-dasharray:none;stroke-opacity:1"
           d="m 121.17096,153.72845 q 0,0.39791 0.0465,1.18339 0.0465,0.78548 0.0465,1.17822 0,0.20671 -0.18087,0.22221 -0.64079,0.0465 -1.46761,0.0465 -0.0982,0 -0.13436,-0.29456 -0.031,-0.29972 -0.0775,-0.30489 -0.0413,0.0207 -0.10852,0.0879 -0.57877,0.58395 -1.24023,0.58395 -1.00769,0 -1.66915,-0.79582 -0.62528,-0.74414 -0.62528,-1.77767 0,-1.19372 0.64595,-1.92236 0.67179,-0.75448 1.83968,-0.75448 0.81132,0 1.28158,0.56844 0.0207,0.0258 0.0362,0.0258 0.0465,0 0.10335,-0.24805 0.062,-0.25321 0.1447,-0.25321 0.1912,0 0.72864,0.10852 0.51159,0.10335 0.7338,0.1757 0.0775,0.031 0.0775,0.0827 0,0.0207 -0.0155,0.10852 -0.16536,0.93535 -0.16536,1.97921 z m -1.66398,0.031 q 0,-0.43925 -0.27906,-0.72347 -0.27388,-0.28939 -0.7183,-0.28939 -0.44442,0 -0.7183,0.28422 -0.27389,0.28422 -0.27389,0.72864 0,0.41857 0.28939,0.7183 0.28939,0.29972 0.7028,0.29972 0.43925,0 0.7183,-0.28422 0.27906,-0.28939 0.27906,-0.7338 z" />
        <path
           inkscape:connector-curvature="0"
           id="path3235"
           style="font-style:normal;font-variant:normal;font-weight:normal;font-stretch:normal;font-family:'Berlin Sans FB Demi';-inkscape-font-specification:'Berlin Sans FB Demi';fill:none;stroke:#151313;stroke-width:0.36500001;stroke-miterlimit:4;stroke-dasharray:none;stroke-opacity:1"
           d="m 125.65647,154.79815 q 0,0.15503 -0.0413,0.47026 -0.0362,0.31522 -0.0362,0.46509 0,0.14469 -0.031,0.18603 -0.031,0.0413 -0.17053,0.11886 -0.66663,0.3669 -1.47794,0.3669 -1.49345,0 -1.49345,-1.14205 0,-0.34106 0.0258,-1.02319 0.0258,-0.6873 0.0258,-1.02836 0,-0.22738 -0.26355,-0.22738 -0.0207,0 -0.0672,0 -0.0465,0.005 -0.0672,0.005 -0.19637,0 -0.19637,-0.13953 0,-0.0827 0.0103,-0.25321 0.0155,-0.17054 0.0155,-0.25322 0,-0.10852 -0.0155,-0.33073 -0.0103,-0.22221 -0.0103,-0.33073 0,-0.10335 0.33073,-0.11369 0.18604,-0.005 0.20154,-0.10335 0.031,-0.19637 0.0207,-0.62012 -0.0207,-0.66662 -0.0207,-0.63562 0,-0.59944 0.11369,-0.59944 0.13953,0 0.39791,0.062 0.29455,0.0672 0.40824,0.0775 0.26355,0.0362 0.79582,0.0982 0.12919,0.0103 0.12919,0.0878 0,0.20671 -0.0362,0.62528 -0.031,0.41858 -0.031,0.63046 0,0.25321 0.14986,0.25321 0.18087,0 0.54777,-0.0155 0.3669,-0.0155 0.55294,-0.0155 0.11369,0 0.11369,0.0775 0,0.11886 -0.0258,0.35657 -0.0258,0.23771 -0.0258,0.35656 0,0.12403 0.005,0.36174 0.005,0.23771 0.005,0.36173 0,0.10853 -0.14986,0.10853 -0.10336,0 -0.34624,-0.005 -0.24288,-0.0103 -0.34623,-0.0103 h -0.38757 q -0.0775,0 -0.0775,0.22738 0,0.12402 0,0.3669 0.005,0.24805 0.005,0.3669 0,0.43409 0.0982,0.59945 0.13952,0.22221 0.54777,0.22221 0.12919,0 0.3669,-0.0568 0.24288,-0.062 0.34106,-0.062 0.10852,0 0.10852,0.11369 z" />
        <path
           inkscape:connector-curvature="0"
           id="path3237"
           style="font-style:normal;font-variant:normal;font-weight:normal;font-stretch:normal;font-family:'Berlin Sans FB Demi';-inkscape-font-specification:'Berlin Sans FB Demi';fill:none;stroke:#151313;stroke-width:0.36500001;stroke-miterlimit:4;stroke-dasharray:none;stroke-opacity:1"
           d="m 131.52692,151.61488 q 0,0.38241 -0.0362,1.14722 -0.0362,0.76481 -0.0362,1.14722 0,0.37207 0.0258,1.11621 0.0258,0.74414 0.0258,1.11104 0,0.13953 -0.12919,0.1757 -0.19637,0.0517 -0.83199,0.0517 -0.56327,0 -0.78548,-0.031 -0.0982,-0.0155 -0.12402,-0.12402 -0.0155,-0.15503 -0.031,-0.31006 -0.0258,-0.23771 -0.0724,-0.23771 0.0724,0 -0.52193,0.3514 -0.59428,0.3514 -1.08003,0.3514 -1.36943,0 -1.62264,-1.23507 -0.11369,-0.57361 -0.11369,-1.66398 0,-1.17822 0.1912,-1.86035 0.0568,-0.21188 0.21187,-0.21188 0.23772,0 0.72347,0.005 0.48576,0.005 0.72347,0.005 0.1602,0 0.1602,0.13436 0,0.0362 -0.0103,0.10852 -0.10853,0.7028 -0.10853,1.42627 0,0.89917 0.0568,1.2299 0.093,0.56844 0.67696,0.56844 0.22738,0 0.49093,-0.20154 0.26871,-0.20154 0.27905,-0.41858 0.0103,-0.1912 0.0103,-2.59416 0,-0.17053 0.0258,-0.20153 0.031,-0.0517 0.18604,-0.0517 0.25321,0 0.75964,0.005 0.5116,0.005 0.76481,0.005 0.15503,0 0.18087,0.0775 0.0103,0.0413 0.0103,0.12402 z" />
        <path
           inkscape:connector-curvature="0"
           id="path3239"
           style="font-style:normal;font-variant:normal;font-weight:normal;font-stretch:normal;font-family:'Berlin Sans FB Demi';-inkscape-font-specification:'Berlin Sans FB Demi';fill:none;stroke:#151313;stroke-width:0.36500001;stroke-miterlimit:4;stroke-dasharray:none;stroke-opacity:1"
           d="m 135.81606,153.09283 q 0,0.20154 -0.22221,0.20154 -0.0982,0 -0.28939,-0.0103 -0.18603,-0.0155 -0.27905,-0.0155 -0.42892,0 -0.58395,0.13436 -0.15502,0.13436 -0.15502,0.5426 0,0.22221 0.005,0.67696 0.0103,0.44959 0.0103,0.6718 0,0.14986 0.0207,0.44958 0.0207,0.29456 0.0207,0.43925 0,0.12402 -0.17053,0.13953 -0.24805,0.0207 -0.75965,0.0207 -0.49092,0 -0.78548,-0.031 -0.17053,-0.0207 -0.17053,-0.17053 0,-0.41341 0.005,-1.23507 0.005,-0.82682 0.005,-1.24023 0,-1.2144 -0.22221,-1.99988 -0.0103,-0.0465 -0.0103,-0.0775 0,-0.0775 0.0775,-0.10336 0.28422,-0.031 0.83199,-0.11369 0.81648,-0.16019 0.84232,-0.16019 0.093,0 0.11886,0.32556 0.0258,0.32556 0.093,0.32556 -0.0724,0 0.42374,-0.26872 0.4961,-0.27388 0.95602,-0.27388 0.28938,0 0.28938,0.12402 0,0.14986 -0.031,0.42375 -0.031,0.29455 -0.0362,0.42374 0,0.14987 0.005,0.39791 0.0103,0.30489 0.0103,0.40308 z" />
        <path
           inkscape:connector-curvature="0"
           id="path3241"
           style="font-style:normal;font-variant:normal;font-weight:normal;font-stretch:normal;font-family:'Berlin Sans FB Demi';-inkscape-font-specification:'Berlin Sans FB Demi';fill:none;stroke:#151313;stroke-width:0.36500001;stroke-miterlimit:4;stroke-dasharray:none;stroke-opacity:1"
           d="m 141.15423,153.50624 q 0,0.52193 -0.33589,0.59428 -0.0568,0.0103 -1.06971,0.11369 -0.60978,0.0672 -1.81901,0.16019 0.0724,0.3359 0.43925,0.5116 0.29973,0.1447 0.68213,0.1447 0.45992,0 0.92501,-0.24805 0.19637,-0.12402 0.39274,-0.24805 0.10852,0.0517 0.36174,0.5271 0.25838,0.47542 0.25838,0.60462 0,0.0362 -0.0775,0.11885 -0.63045,0.67696 -1.95853,0.67696 -1.2299,0 -1.98438,-0.7183 -0.77514,-0.72864 -0.77514,-1.9482 0,-1.18856 0.69246,-1.9482 0.71313,-0.78548 1.89136,-0.78548 0.99218,0 1.68465,0.72347 0.69246,0.72347 0.69246,1.72082 z m -1.80867,-0.31523 q 0,-0.32039 -0.22738,-0.56327 -0.22737,-0.24288 -0.5426,-0.24288 -0.32556,0 -0.53744,0.27389 -0.19637,0.25321 -0.19637,0.59428 0,0.13952 0.1447,0.13952 0.3824,0 1.18856,-0.11885 0.17053,-0.0258 0.17053,-0.0827 z" />
      </g>
      <g
         id="text1495-0"
         style="font-style:normal;font-weight:normal;font-size:26.50398827px;line-height:1.25;font-family:sans-serif;letter-spacing:0px;word-spacing:0px;fill:none;fill-opacity:1;stroke:#151313;stroke-width:0.91407466;stroke-miterlimit:4;stroke-dasharray:none;stroke-opacity:1"
         transform="scale(0.91388891,1.0942249)"
         aria-label="Bee 'N' Me">
        <path
           inkscape:connector-curvature="0"
           id="path3200"
           style="font-style:normal;font-variant:normal;font-weight:normal;font-stretch:normal;font-family:'Berlin Sans FB Demi';-inkscape-font-specification:'Berlin Sans FB Demi';fill:none;stroke:#151313;stroke-width:0.91407466;stroke-miterlimit:4;stroke-dasharray:none;stroke-opacity:1"
           d="m 74.541997,124.7207 q 0,2.38122 -1.488261,3.94713 -1.695323,1.79885 -5.953044,1.79885 -0.323535,0 -0.931781,-0.0129 -0.621187,0 -0.918839,0 -4.775377,0 -5.681275,-0.19412 -0.375301,-0.0777 -0.375301,-0.40118 0,-1.38473 0.155297,-4.19302 0.168238,-2.80828 0.168238,-4.20595 0,-1.5012 -0.155296,-5.64245 -0.03883,-1.0612 -0.142356,-3.18359 l -0.01294,-0.18118 q -0.01294,-0.24588 0.401183,-0.29765 0.427066,-0.0518 3.002405,-0.0518 4.128307,0 4.827143,0.0259 3.183584,0.11647 4.697728,1.03531 2.005917,1.22943 2.005917,4.15419 0,0.76354 -0.46589,1.61768 -0.336477,0.60824 -0.880016,1.21649 -0.478831,0.53059 -0.478831,0.49177 0,0.0906 0.336476,0.28471 0.905898,0.51766 1.423554,1.64356 0.46589,1.00943 0.46589,2.14827 z m -5.564802,-7.28601 q 0,-1.11296 -1.11296,-1.47532 -0.621187,-0.19412 -2.044742,-0.19412 -1.397671,0 -1.397671,0.20706 0,0.24589 -0.05177,0.75061 -0.03883,0.49177 -0.03883,0.73766 0,1.29414 0.220004,1.44943 0.142356,0.11647 1.643558,0.11647 2.782401,0 2.782401,-1.59179 z m 0.388242,7.23425 q 0,-1.16473 -0.970605,-1.57886 -0.621187,-0.25882 -2.018858,-0.25882 -1.669441,0 -1.811796,0.12941 -0.142356,0.11647 -0.142356,1.57885 0,1.52709 0.168238,1.69532 0.168239,0.1553 1.863562,0.1553 1.397671,0 1.967093,-0.22 0.944722,-0.3753 0.944722,-1.5012 z" />
        <path
           inkscape:connector-curvature="0"
           id="path3202"
           style="font-style:normal;font-variant:normal;font-weight:normal;font-stretch:normal;font-family:'Berlin Sans FB Demi';-inkscape-font-specification:'Berlin Sans FB Demi';fill:none;stroke:#151313;stroke-width:0.91407466;stroke-miterlimit:4;stroke-dasharray:none;stroke-opacity:1"
           d="m 87.936346,123.28421 q 0,1.30708 -0.841191,1.48826 -0.142355,0.0259 -2.67887,0.28471 -1.527085,0.16824 -4.555373,0.40118 0.18118,0.84119 1.100019,1.2812 0.750601,0.36236 1.708265,0.36236 1.151785,0 2.316511,-0.62119 0.491773,-0.31059 0.983546,-0.62119 0.27177,0.12942 0.905898,1.32003 0.64707,1.19061 0.64707,1.51414 0,0.0906 -0.194121,0.29765 -1.578851,1.69533 -4.904791,1.69533 -3.080053,0 -4.969497,-1.79886 -1.94121,-1.82474 -1.94121,-4.87891 0,-2.97652 1.734147,-4.8789 1.785914,-1.9671 4.736553,-1.9671 2.484749,0 4.218896,1.8118 1.734148,1.8118 1.734148,4.30949 z m -4.52949,-0.78943 q 0,-0.80237 -0.569422,-1.41061 -0.569421,-0.60825 -1.358847,-0.60825 -0.815308,0 -1.345905,0.6859 -0.491774,0.63412 -0.491774,1.48826 0,0.34941 0.36236,0.34941 0.957663,0 2.976522,-0.29765 0.427066,-0.0647 0.427066,-0.20706 z" />
        <path
           inkscape:connector-curvature="0"
           id="path3204"
           style="font-style:normal;font-variant:normal;font-weight:normal;font-stretch:normal;font-family:'Berlin Sans FB Demi';-inkscape-font-specification:'Berlin Sans FB Demi';fill:none;stroke:#151313;stroke-width:0.91407466;stroke-miterlimit:4;stroke-dasharray:none;stroke-opacity:1"
           d="m 101.2401,123.28421 q 0,1.30708 -0.84119,1.48826 -0.14235,0.0259 -2.678866,0.28471 -1.527085,0.16824 -4.555373,0.40118 0.181179,0.84119 1.100019,1.2812 0.750601,0.36236 1.708265,0.36236 1.151784,0 2.31651,-0.62119 0.491774,-0.31059 0.983547,-0.62119 0.271769,0.12942 0.905898,1.32003 0.64707,1.19061 0.64707,1.51414 0,0.0906 -0.19412,0.29765 -1.578852,1.69533 -4.904792,1.69533 -3.080053,0 -4.969498,-1.79886 -1.94121,-1.82474 -1.94121,-4.87891 0,-2.97652 1.734148,-4.8789 1.785913,-1.9671 4.736552,-1.9671 2.484749,0 4.218897,1.8118 1.734143,1.8118 1.734143,4.30949 z m -4.529485,-0.78943 q 0,-0.80237 -0.569422,-1.41061 -0.569422,-0.60825 -1.358847,-0.60825 -0.815308,0 -1.345906,0.6859 -0.491773,0.63412 -0.491773,1.48826 0,0.34941 0.362359,0.34941 0.957664,0 2.976522,-0.29765 0.427067,-0.0647 0.427067,-0.20706 z" />
        <path
           inkscape:connector-curvature="0"
           id="path3206"
           style="font-style:normal;font-variant:normal;font-weight:normal;font-stretch:normal;font-family:'Berlin Sans FB Demi';-inkscape-font-specification:'Berlin Sans FB Demi';fill:none;stroke:#151313;stroke-width:0.91407466;stroke-miterlimit:4;stroke-dasharray:none;stroke-opacity:1"
           d="m 113.40502,114.48405 q 0,2.14828 -0.94472,4.67185 -0.0906,0.23294 -0.29765,0.25883 -0.3106,0.0518 -0.84119,0.0518 -0.37531,0 -0.75061,-0.0518 -0.55648,-0.0777 -0.99648,-2.4071 -0.34942,-1.85062 -0.34942,-2.91182 v -1.59179 q 0,-0.29765 0.15529,-0.34942 0.22001,-0.0777 1.85063,-0.0777 1.76003,0 1.94121,0.0777 0.23294,0.10353 0.23294,2.32945 z" />
        <path
           inkscape:connector-curvature="0"
           id="path3208"
           style="font-style:normal;font-variant:normal;font-weight:normal;font-stretch:normal;font-family:'Berlin Sans FB Demi';-inkscape-font-specification:'Berlin Sans FB Demi';fill:none;stroke:#151313;stroke-width:0.91407466;stroke-miterlimit:4;stroke-dasharray:none;stroke-opacity:1"
           d="m 132.88183,112.55578 q 0,1.47532 -0.12942,4.4389 -0.11647,2.95064 -0.11647,4.43891 v 8.52838 q 0,0.34942 -0.3753,0.34942 -0.31059,0 -0.94472,0.0259 -0.62119,0.0259 -0.93178,0.0259 -0.33648,0 -1.00943,-0.0518 -0.67295,-0.0518 -1.00943,-0.0518 -0.23295,0 -0.55648,-0.42707 -0.93178,-1.25531 -4.19301,-5.5648 -0.89296,-1.20355 -2.7177,-3.54594 -0.0518,-0.0777 -0.19412,-0.1553 -0.10353,0.0906 -0.10353,0.28471 0,1.5012 0.0776,4.50361 0.0906,3.0024 0.0906,4.50361 0,0.45295 -0.34942,0.45295 h -4.47772 q -0.37531,0 -0.37531,-0.40119 0,-1.39767 0.12942,-4.21889 0.14235,-2.82123 0.14235,-4.23184 0,-1.48826 -0.12941,-4.45184 -0.11647,-2.96358 -0.11647,-4.4389 0,-0.28471 0.50471,-0.28471 0.7506,0 1.85062,-0.10354 0.25883,-0.0259 1.02237,-0.16823 0.64707,-0.11648 1.02237,-0.11648 0.1553,0 0.47884,0.44001 l 4.82714,6.61306 q 0.64707,0.89295 1.95415,2.61416 0.32353,0.40118 0.55648,0.40118 0.16824,0 0.16824,-1.00943 0,-1.35884 -0.1553,-4.08948 -0.14235,-2.73063 -0.14235,-4.10242 0,-0.47883 0.27176,-0.47883 0.77649,0 2.3424,-0.0647 1.56591,-0.0647 2.34239,-0.0647 0.24589,0 0.24589,0.40118 z" />
        <path
           inkscape:connector-curvature="0"
           id="path3210"
           style="font-style:normal;font-variant:normal;font-weight:normal;font-stretch:normal;font-family:'Berlin Sans FB Demi';-inkscape-font-specification:'Berlin Sans FB Demi';fill:none;stroke:#151313;stroke-width:0.91407466;stroke-miterlimit:4;stroke-dasharray:none;stroke-opacity:1"
           d="m 139.28783,114.48405 q 0,2.14828 -0.94473,4.67185 -0.0906,0.23294 -0.29765,0.25883 -0.31059,0.0518 -0.84119,0.0518 -0.3753,0 -0.7506,-0.0518 -0.55648,-0.0777 -0.99649,-2.4071 -0.34942,-1.85062 -0.34942,-2.91182 v -1.59179 q 0,-0.29765 0.1553,-0.34942 0.22,-0.0777 1.85062,-0.0777 1.76003,0 1.94121,0.0777 0.23295,0.10353 0.23295,2.32945 z" />
        <path
           inkscape:connector-curvature="0"
           id="path3212"
           style="font-style:normal;font-variant:normal;font-weight:normal;font-stretch:normal;font-family:'Berlin Sans FB Demi';-inkscape-font-specification:'Berlin Sans FB Demi';fill:none;stroke:#151313;stroke-width:0.91407466;stroke-miterlimit:4;stroke-dasharray:none;stroke-opacity:1"
           d="m 167.37066,129.9102 q 0,0.40119 -0.3753,0.40119 h -4.58125 q -0.3753,0 -0.3753,-0.45295 0,-1.30708 0.0906,-3.92125 0.10353,-2.61416 0.10353,-3.92124 0,-0.3753 -0.11648,-0.40119 -0.14235,0.0776 -1.73414,3.9989 -0.93178,2.30357 -1.86356,4.59419 -0.12942,0.29766 -0.32354,0.34942 -0.0647,0.0129 -0.51766,0.0129 -0.67295,0 -0.80236,-0.25882 -0.69884,-1.42356 -1.83768,-4.14125 -1.21649,-2.87299 -1.82474,-4.15419 -0.0259,-0.0647 -0.11647,-0.14236 -0.0906,0.11648 -0.0906,0.3753 0,1.26826 0.0647,3.80478 0.0647,2.53651 0.0647,3.80477 0,0.45295 -0.36236,0.45295 h -4.32242 q -0.25883,0 -0.32354,-0.0776 -0.0518,-0.0906 -0.0518,-0.29765 0,-1.41062 0.12942,-4.23184 0.14235,-2.83417 0.14235,-4.24478 0,-1.5012 -0.12941,-5.62951 -0.0129,-1.07414 -0.11647,-3.19653 l -0.0129,-0.22 q -0.0129,-0.25883 0.54354,-0.25883 0.71177,0 2.13533,-0.0388 1.42355,-0.0518 2.13533,-0.0518 0.14235,0 0.40118,0.54354 l 3.77889,8.29544 q 0.40118,0.84119 0.67295,0.84119 0.14236,0 0.60825,-0.97061 1.30708,-2.71769 3.86948,-8.1919 0.22,-0.50472 0.47883,-0.50472 0.3753,0 1.1259,0.0388 0.76354,0.0388 1.15179,0.0388 0.32353,0 0.98354,-0.0647 0.67295,-0.0647 0.99649,-0.0647 0.38824,0 0.38824,0.31059 0,1.52709 -0.11647,4.56832 -0.10353,3.02828 -0.10353,4.55537 0,1.41061 0.11647,4.23184 0.11647,2.82122 0.11647,4.21889 z" />
        <path
           inkscape:connector-curvature="0"
           id="path3214"
           style="font-style:normal;font-variant:normal;font-weight:normal;font-stretch:normal;font-family:'Berlin Sans FB Demi';-inkscape-font-specification:'Berlin Sans FB Demi';fill:none;stroke:#151313;stroke-width:0.91407466;stroke-miterlimit:4;stroke-dasharray:none;stroke-opacity:1"
           d="m 181.52856,123.28421 q 0,1.30708 -0.84119,1.48826 -0.14236,0.0259 -2.67887,0.28471 -1.52709,0.16824 -4.55538,0.40118 0.18118,0.84119 1.10002,1.2812 0.7506,0.36236 1.70827,0.36236 1.15178,0 2.31651,-0.62119 0.49177,-0.31059 0.98354,-0.62119 0.27177,0.12942 0.9059,1.32003 0.64707,1.19061 0.64707,1.51414 0,0.0906 -0.19412,0.29765 -1.57885,1.69533 -4.90479,1.69533 -3.08005,0 -4.9695,-1.79886 -1.94121,-1.82474 -1.94121,-4.87891 0,-2.97652 1.73415,-4.8789 1.78591,-1.9671 4.73655,-1.9671 2.48475,0 4.2189,1.8118 1.73415,1.8118 1.73415,4.30949 z m -4.52949,-0.78943 q 0,-0.80237 -0.56942,-1.41061 -0.56943,-0.60825 -1.35885,-0.60825 -0.81531,0 -1.34591,0.6859 -0.49177,0.63412 -0.49177,1.48826 0,0.34941 0.36236,0.34941 0.95766,0 2.97652,-0.29765 0.42707,-0.0647 0.42707,-0.20706 z" />
      </g>
      <rect
         style="opacity:1;fill:none;fill-opacity:1;stroke:#151313;stroke-width:0.20419852;stroke-miterlimit:4;stroke-dasharray:none;stroke-dashoffset:0;stroke-opacity:1"
         id="rect1555"
         width="4.6965156"
         height="31.532824"
         x="87.610077"
         y="86.764839" />
      <rect
         style="opacity:1;fill:none;fill-opacity:1;stroke:#151313;stroke-width:0.20300077;stroke-miterlimit:4;stroke-dasharray:none;stroke-dashoffset:0;stroke-opacity:1"
         id="rect1555-8"
         width="4.6977134"
         height="31.156044"
         x="121.62733"
         y="86.764236" />
      <rect
         style="opacity:1;fill:none;fill-opacity:1;stroke:#151313;stroke-width:0.23202308;stroke-miterlimit:4;stroke-dasharray:none;stroke-dashoffset:0;stroke-opacity:1"
         id="rect1555-4"
         width="4.6686912"
         height="40.954407"
         x="104.63291"
         y="77.707321" />
      <rect
         style="opacity:1;fill:none;fill-opacity:1;stroke:#151313;stroke-width:0.20419852;stroke-miterlimit:4;stroke-dasharray:none;stroke-dashoffset:0;stroke-opacity:1"
         id="rect1555-6"
         width="4.6965156"
         height="31.532824"
         x="90.25592"
         y="-191.24707"
         transform="scale(1,-1)" />
      <rect
         style="opacity:1;fill:none;fill-opacity:1;stroke:#151313;stroke-width:0.20300077;stroke-miterlimit:4;stroke-dasharray:none;stroke-dashoffset:0;stroke-opacity:1"
         id="rect1555-8-5"
         width="4.6977134"
         height="31.156044"
         x="120.87138"
         y="-191.24768"
         transform="scale(1,-1)" />
      <rect
         style="opacity:1;fill:none;fill-opacity:1;stroke:#151313;stroke-width:0.23202308;stroke-miterlimit:4;stroke-dasharray:none;stroke-dashoffset:0;stroke-opacity:1"
         id="rect1555-4-1"
         width="4.6686912"
         height="40.954407"
         x="105.38886"
         y="-200.68257"
         transform="scale(1,-1)" />
      <rect
         style="opacity:1;fill:none;fill-opacity:1;stroke:#151313;stroke-width:0.36500001;stroke-miterlimit:4;stroke-dasharray:none;stroke-dashoffset:0;stroke-opacity:1"
         id="rect1599"
         width="4.1577382"
         height="15.497024"
         x="73.70536"
         y="102.72024" />
      <rect
         style="opacity:1;fill:none;fill-opacity:1;stroke:#151313;stroke-width:0.36500001;stroke-miterlimit:4;stroke-dasharray:none;stroke-dashoffset:0;stroke-opacity:1"
         id="rect1599-2"
         width="4.1577382"
         height="15.497025"
         x="135.94916"
         y="159.88458" />
      <rect
         style="opacity:1;fill:none;fill-opacity:1;stroke:#151313;stroke-width:0.36500001;stroke-miterlimit:4;stroke-dasharray:none;stroke-dashoffset:0;stroke-opacity:1"
         id="rect1599-5"
         width="4.1577382"
         height="15.497025"
         x="73.583076"
         y="159.8846" />
      <rect
         style="opacity:1;fill:none;fill-opacity:1;stroke:#151313;stroke-width:0.36500001;stroke-miterlimit:4;stroke-dasharray:none;stroke-dashoffset:0;stroke-opacity:1"
         id="rect1599-50"
         width="4.1577382"
         height="15.497025"
         x="136.32712"
         y="101.29828" />
    </g>
  </g>
</svg>
