<?xml version="1.0" encoding="UTF-8" standalone="no"?>
<svg
   xmlns:dc="http://purl.org/dc/elements/1.1/"
   xmlns:cc="http://creativecommons.org/ns#"
   xmlns:rdf="http://www.w3.org/1999/02/22-rdf-syntax-ns#"
   xmlns:svg="http://www.w3.org/2000/svg"
   xmlns="http://www.w3.org/2000/svg"
   xmlns:sodipodi="http://sodipodi.sourceforge.net/DTD/sodipodi-0.dtd"
   xmlns:inkscape="http://www.inkscape.org/namespaces/inkscape"
   id="svg903"
   version="1.1"
   viewBox="0 0 210 297"
   height="297mm"
   width="210mm"
   sodipodi:docname="logo Bee'N'Me couleurs.svg"
   inkscape:version="0.92.2 (5c3e80d, 2017-08-06)">
  <sodipodi:namedview
     pagecolor="#ffffff"
     bordercolor="#666666"
     borderopacity="1"
     objecttolerance="10"
     gridtolerance="10"
     guidetolerance="10"
     inkscape:pageopacity="0"
     inkscape:pageshadow="2"
     inkscape:window-width="1920"
     inkscape:window-height="1001"
     id="namedview1426"
     showgrid="false"
     inkscape:zoom="0.69308361"
     inkscape:cx="396.85039"
     inkscape:cy="561.25984"
     inkscape:window-x="-9"
     inkscape:window-y="-9"
     inkscape:window-maximized="1"
     inkscape:current-layer="svg903" />
  <defs
     id="defs897" />
  <metadata
     id="metadata900">
    <rdf:RDF>
      <cc:Work
         rdf:about="">
        <dc:format>image/svg+xml</dc:format>
        <dc:type
           rdf:resource="http://purl.org/dc/dcmitype/StillImage" />
        <dc:title></dc:title>
      </cc:Work>
    </rdf:RDF>
  </metadata>
  <g
     id="g3370"
     transform="translate(266.47322,-142.875)">
    <g
       id="g2563">
      <path
         inkscape:connector-curvature="0"
         id="path1810"
         d="m -123.5982,158.28274 -31.10526,47.07231 -56.31846,-3.40178 -25.21319,-50.4741 31.10526,-47.07232 56.31845,3.40178 z"
         style="opacity:1;fill:#008066;fill-opacity:1;stroke:none;stroke-width:0.36500001;stroke-miterlimit:4;stroke-dasharray:none;stroke-dashoffset:0;stroke-opacity:1"
         transform="matrix(1.0944937,0.54792076,-0.55119396,1.1010321,116.92253,152.47975)" />
      <g
         id="text1495-6"
         style="font-style:normal;font-weight:normal;font-size:10.58333302px;line-height:1.25;font-family:sans-serif;letter-spacing:0px;word-spacing:0px;fill:#ffffff;fill-opacity:1;stroke:none;stroke-width:0.36500001;stroke-miterlimit:4;stroke-dasharray:none;stroke-opacity:1"
         aria-label="L'hôtel Nature">
        <path
           inkscape:connector-curvature="0"
           id="path3281"
           style="font-style:normal;font-variant:normal;font-weight:normal;font-stretch:normal;font-family:'Berlin Sans FB Demi';-inkscape-font-specification:'Berlin Sans FB Demi';fill:#ffffff;stroke:none;stroke-width:0.36500001;stroke-miterlimit:4;stroke-dasharray:none;stroke-opacity:1"
           d="m -195.41695,242.01172 q -0.44441,0 -1.15755,-0.0207 -0.93017,-0.0207 -1.15755,-0.0258 l -1.54513,-0.0207 q -0.23254,0.005 -0.66662,-0.0207 -0.14986,-0.0258 -0.14986,-0.16019 0,-0.56328 0.0155,-1.68465 0.0207,-1.12655 0.0207,-1.68982 0,-0.59945 -0.0362,-1.79318 -0.0362,-1.19889 -0.0362,-1.79834 0,-0.11368 0.15503,-0.11368 0.15503,0 0.45992,0.0155 0.31006,0.0155 0.45992,0.0155 0.17053,0 0.50643,-0.0155 0.3359,-0.0207 0.50643,-0.0207 0.0775,0 0.0724,0.0982 l -0.005,0.0672 q -0.062,0.97152 -0.13953,2.91972 l -0.005,1.36426 q 0,0.66146 0.005,0.96635 0.005,0.062 0.0103,0.12402 0.005,0.062 0.0775,0.0775 0.005,0 0.13436,0 0.46509,0 1.3901,-0.0465 0.93017,-0.0517 1.39526,-0.0517 0.13953,0 0.13953,0.11886 0,0.88366 -0.12919,1.52445 -0.0258,0.13436 -0.10852,0.1602 -0.0258,0.0103 -0.21188,0.0103 z" />
        <path
           inkscape:connector-curvature="0"
           id="path3283"
           style="font-style:normal;font-variant:normal;font-weight:normal;font-stretch:normal;font-family:'Berlin Sans FB Demi';-inkscape-font-specification:'Berlin Sans FB Demi';fill:#ffffff;stroke:none;stroke-width:0.36500001;stroke-miterlimit:4;stroke-dasharray:none;stroke-opacity:1"
           d="m -192.78145,235.60385 q 0,0.85783 -0.37724,1.86552 -0.0362,0.093 -0.11885,0.10335 -0.12403,0.0207 -0.3359,0.0207 -0.14986,0 -0.29972,-0.0207 -0.22221,-0.031 -0.39791,-0.96118 -0.13953,-0.73898 -0.13953,-1.16272 v -0.63562 q 0,-0.11886 0.062,-0.13953 0.0879,-0.031 0.73898,-0.031 0.7028,0 0.77514,0.031 0.093,0.0413 0.093,0.93018 z" />
        <path
           inkscape:connector-curvature="0"
           id="path3285"
           style="font-style:normal;font-variant:normal;font-weight:normal;font-stretch:normal;font-family:'Berlin Sans FB Demi';-inkscape-font-specification:'Berlin Sans FB Demi';fill:#ffffff;stroke:none;stroke-width:0.36500001;stroke-miterlimit:4;stroke-dasharray:none;stroke-opacity:1"
           d="m -186.79732,238.17733 -0.0103,3.56568 q 0,0.18086 -0.1447,0.20153 -0.16536,0.0207 -0.75447,0.0207 -0.56844,0 -0.79065,-0.0413 -0.17053,-0.031 -0.17053,-0.2222 0,-0.44442 0.0155,-1.33842 0.0155,-0.89401 0.0155,-1.33842 0,-0.60462 -0.61495,-0.60462 -0.2067,0 -0.48576,0.16537 -0.30489,0.18086 -0.30489,0.37723 v 1.27641 q 0,0.24805 0.0103,0.74931 0.0103,0.49609 0.0103,0.74414 0,0.1912 -0.16019,0.21187 -0.1602,0.0207 -0.89917,0.0207 -0.42375,0 -0.60979,-0.0413 -0.18603,-0.0413 -0.18603,-0.18086 0,-0.40825 0.005,-1.22474 0.005,-0.82165 0.005,-1.22989 0,-1.68982 -0.0362,-2.7957 -0.0155,-0.38757 -0.0258,-0.77515 -0.0258,-0.44958 -0.093,-0.76997 -0.0155,-0.0672 -0.0155,-0.0982 0,-0.0775 0.0775,-0.10335 0.16019,-0.0465 0.47025,-0.0568 0.41341,-0.0155 0.48059,-0.0258 0.93535,-0.10853 0.93535,-0.10853 0.0827,0 0.0827,0.10853 0,0.16536 -0.0207,0.44958 -0.0207,0.33073 -0.0207,0.44959 -0.031,1.16788 -0.031,1.84484 0,0.10336 0.0517,0.10336 0.0103,0 0.26355,-0.18087 0.29972,-0.21187 0.57361,-0.3359 0.40824,-0.18087 0.79065,-0.18087 0.66145,0 1.10587,0.34624 0.48059,0.37207 0.48059,1.01802 z" />
        <path
           inkscape:connector-curvature="0"
           id="path3287"
           style="font-style:normal;font-variant:normal;font-weight:normal;font-stretch:normal;font-family:'Berlin Sans FB Demi';-inkscape-font-specification:'Berlin Sans FB Demi';fill:#ffffff;stroke:none;stroke-width:0.36500001;stroke-miterlimit:4;stroke-dasharray:none;stroke-opacity:1"
           d="m -180.98889,239.38139 q 0,1.17823 -0.72347,1.91203 -0.7183,0.73381 -1.89135,0.73381 -1.13689,0 -1.87069,-0.72347 -0.73381,-0.72347 -0.73381,-1.86035 0,-1.1989 0.7028,-1.94304 0.7028,-0.74931 1.9017,-0.74931 1.16788,0 1.89135,0.73381 0.72347,0.72864 0.72347,1.89652 z m -1.69498,0 q 0,-0.40824 -0.25322,-0.7183 -0.25321,-0.31523 -0.65629,-0.31523 -0.40824,0 -0.67179,0.3204 -0.24805,0.29972 -0.24805,0.71313 0,0.41858 0.24805,0.71831 0.26355,0.32039 0.67179,0.32039 0.40308,0 0.66663,-0.32039 0.24288,-0.29973 0.24288,-0.71831 z m 0.0568,-2.97139 q -0.26355,0 -1.0542,-0.96118 l -0.0413,0.031 q -0.093,0.21704 -0.40824,0.54777 -0.3514,0.36174 -0.54261,0.36174 -0.005,0 -0.45992,-0.17053 -0.3514,-0.13436 -0.3514,-0.1602 0,-0.0258 0.0568,-0.093 0.33073,-0.37207 0.66146,-0.74414 0.40824,-0.49093 0.53226,-0.83199 0.0362,-0.0982 0.12919,-0.0982 h 0.89917 q 0.0879,0 0.11886,0.0982 0.10852,0.34106 0.45475,0.75964 0.41341,0.43925 0.83199,0.90951 -0.0103,0.0155 -0.39791,0.18603 -0.38757,0.16537 -0.42891,0.16537 z" />
        <path
           inkscape:connector-curvature="0"
           id="path3289"
           style="font-style:normal;font-variant:normal;font-weight:normal;font-stretch:normal;font-family:'Berlin Sans FB Demi';-inkscape-font-specification:'Berlin Sans FB Demi';fill:#ffffff;stroke:none;stroke-width:0.36500001;stroke-miterlimit:4;stroke-dasharray:none;stroke-opacity:1"
           d="m -176.90128,240.40975 q 0,0.15503 -0.0413,0.47026 -0.0362,0.31523 -0.0362,0.46509 0,0.14469 -0.031,0.18603 -0.031,0.0413 -0.17053,0.11886 -0.66663,0.3669 -1.47795,0.3669 -1.49345,0 -1.49345,-1.14205 0,-0.34106 0.0258,-1.02319 0.0258,-0.6873 0.0258,-1.02836 0,-0.22738 -0.26355,-0.22738 -0.0207,0 -0.0672,0 -0.0465,0.005 -0.0672,0.005 -0.19637,0 -0.19637,-0.13953 0,-0.0827 0.0103,-0.25321 0.0155,-0.17053 0.0155,-0.25322 0,-0.10852 -0.0155,-0.33073 -0.0103,-0.2222 -0.0103,-0.33072 0,-0.10336 0.33073,-0.11369 0.18603,-0.005 0.20154,-0.10336 0.031,-0.19637 0.0207,-0.62011 -0.0207,-0.66663 -0.0207,-0.63562 0,-0.59945 0.11368,-0.59945 0.13953,0 0.39791,0.062 0.29456,0.0672 0.40825,0.0775 0.26355,0.0362 0.79581,0.0982 0.12919,0.0103 0.12919,0.0879 0,0.20671 -0.0362,0.62529 -0.031,0.41858 -0.031,0.63045 0,0.25321 0.14986,0.25321 0.18086,0 0.54777,-0.0155 0.3669,-0.0155 0.55294,-0.0155 0.11368,0 0.11368,0.0775 0,0.11886 -0.0258,0.35657 -0.0258,0.23771 -0.0258,0.35657 0,0.12402 0.005,0.36173 0.005,0.23771 0.005,0.36174 0,0.10852 -0.14986,0.10852 -0.10335,0 -0.34623,-0.005 -0.24288,-0.0103 -0.34623,-0.0103 h -0.38758 q -0.0775,0 -0.0775,0.22737 0,0.12402 0,0.3669 0.005,0.24805 0.005,0.36691 0,0.43408 0.0982,0.59944 0.13953,0.22221 0.54777,0.22221 0.12919,0 0.3669,-0.0568 0.24288,-0.062 0.34107,-0.062 0.10852,0 0.10852,0.11368 z" />
        <path
           inkscape:connector-curvature="0"
           id="path3291"
           style="font-style:normal;font-variant:normal;font-weight:normal;font-stretch:normal;font-family:'Berlin Sans FB Demi';-inkscape-font-specification:'Berlin Sans FB Demi';fill:#ffffff;stroke:none;stroke-width:0.36500001;stroke-miterlimit:4;stroke-dasharray:none;stroke-opacity:1"
           d="m -171.61478,239.11784 q 0,0.52194 -0.3359,0.59428 -0.0568,0.0103 -1.0697,0.11369 -0.60978,0.0672 -1.81901,0.1602 0.0723,0.33589 0.43925,0.51159 0.29972,0.1447 0.68213,0.1447 0.45992,0 0.925,-0.24805 0.19637,-0.12402 0.39275,-0.24805 0.10852,0.0517 0.36173,0.5271 0.25838,0.47543 0.25838,0.60462 0,0.0362 -0.0775,0.11885 -0.63045,0.67697 -1.95854,0.67697 -1.2299,0 -1.98437,-0.71831 -0.77515,-0.72863 -0.77515,-1.9482 0,-1.18856 0.69246,-1.9482 0.71314,-0.78548 1.89136,-0.78548 0.99219,0 1.68465,0.72347 0.69247,0.72347 0.69247,1.72082 z m -1.80868,-0.31522 q 0,-0.3204 -0.22737,-0.56328 -0.22738,-0.24287 -0.54261,-0.24287 -0.32556,0 -0.53743,0.27388 -0.19637,0.25321 -0.19637,0.59428 0,0.13953 0.14469,0.13953 0.38241,0 1.18856,-0.11886 0.17053,-0.0258 0.17053,-0.0827 z" />
        <path
           inkscape:connector-curvature="0"
           id="path3293"
           style="font-style:normal;font-variant:normal;font-weight:normal;font-stretch:normal;font-family:'Berlin Sans FB Demi';-inkscape-font-specification:'Berlin Sans FB Demi';fill:#ffffff;stroke:none;stroke-width:0.36500001;stroke-miterlimit:4;stroke-dasharray:none;stroke-opacity:1"
           d="m -169.15498,238.81295 q 0,1.41077 0.0103,2.16525 0,0.11885 0.0155,0.40824 0.0155,0.26355 0.0155,0.40824 0,0.10852 -0.12919,0.12919 -0.23255,0.0413 -0.83716,0.0413 -0.62012,0 -0.79065,-0.0413 -0.11369,-0.0258 -0.12919,-0.13952 0,-0.0155 0,-0.22221 0,-0.45992 0.0103,-1.37459 0.0103,-0.91984 0.0103,-1.3746 0,-2.17041 0.005,-1.9792 -0.0155,-1.14205 -0.1292,-1.96888 -0.0103,-0.0568 -0.0103,-0.0879 0,-0.11368 0.13436,-0.11368 h 1.84485 q 0.12919,0 0.11885,0.10852 l -0.005,0.093 q -0.13435,2.23243 -0.13435,3.94808 z" />
        <path
           inkscape:connector-curvature="0"
           id="path3295"
           style="font-style:normal;font-variant:normal;font-weight:normal;font-stretch:normal;font-family:'Berlin Sans FB Demi';-inkscape-font-specification:'Berlin Sans FB Demi';fill:#ffffff;stroke:none;stroke-width:0.36500001;stroke-miterlimit:4;stroke-dasharray:none;stroke-opacity:1"
           d="m -158.60783,234.83387 q 0,0.58911 -0.0517,1.7725 -0.0465,1.17822 -0.0465,1.7725 v 3.40548 q 0,0.13952 -0.14986,0.13952 -0.12403,0 -0.37724,0.0103 -0.24805,0.0103 -0.37207,0.0103 -0.13436,0 -0.40308,-0.0207 -0.26871,-0.0207 -0.40307,-0.0207 -0.093,0 -0.22221,-0.17053 -0.37207,-0.50126 -1.67432,-2.22209 -0.35656,-0.48059 -1.0852,-1.41593 -0.0207,-0.031 -0.0775,-0.062 -0.0413,0.0362 -0.0413,0.11369 0,0.59944 0.031,1.79834 0.0362,1.19889 0.0362,1.79834 0,0.18086 -0.13953,0.18086 h -1.788 q -0.14986,0 -0.14986,-0.16019 0,-0.55811 0.0517,-1.68465 0.0568,-1.12655 0.0568,-1.68982 0,-0.59428 -0.0517,-1.77767 -0.0465,-1.18339 -0.0465,-1.7725 0,-0.11369 0.20154,-0.11369 0.29973,0 0.73897,-0.0413 0.10336,-0.0103 0.40825,-0.0672 0.25838,-0.0465 0.40824,-0.0465 0.062,0 0.19121,0.1757 l 1.92753,2.64066 q 0.25838,0.35657 0.78031,1.04387 0.12919,0.16019 0.22221,0.16019 0.0672,0 0.0672,-0.40307 0,-0.5426 -0.062,-1.63298 -0.0568,-1.09037 -0.0568,-1.63814 0,-0.1912 0.10852,-0.1912 0.31006,0 0.93535,-0.0258 0.62528,-0.0258 0.93534,-0.0258 0.0982,0 0.0982,0.1602 z" />
        <path
           inkscape:connector-curvature="0"
           id="path3297"
           style="font-style:normal;font-variant:normal;font-weight:normal;font-stretch:normal;font-family:'Berlin Sans FB Demi';-inkscape-font-specification:'Berlin Sans FB Demi';fill:#ffffff;stroke:none;stroke-width:0.36500001;stroke-miterlimit:4;stroke-dasharray:none;stroke-opacity:1"
           d="m -152.48934,239.34005 q 0,0.39791 0.0465,1.18339 0.0465,0.78548 0.0465,1.17823 0,0.2067 -0.18087,0.2222 -0.64078,0.0465 -1.46761,0.0465 -0.0982,0 -0.13435,-0.29455 -0.031,-0.29973 -0.0775,-0.30489 -0.0413,0.0207 -0.10852,0.0879 -0.57878,0.58394 -1.24023,0.58394 -1.00769,0 -1.66915,-0.79582 -0.62529,-0.74414 -0.62529,-1.77767 0,-1.19372 0.64596,-1.92236 0.67179,-0.75448 1.83968,-0.75448 0.81132,0 1.28157,0.56845 0.0207,0.0258 0.0362,0.0258 0.0465,0 0.10335,-0.24804 0.062,-0.25322 0.14469,-0.25322 0.19121,0 0.72864,0.10852 0.5116,0.10336 0.73381,0.1757 0.0775,0.031 0.0775,0.0827 0,0.0207 -0.0155,0.10853 -0.16537,0.93534 -0.16537,1.9792 z m -1.66398,0.031 q 0,-0.43925 -0.27905,-0.72347 -0.27388,-0.28939 -0.7183,-0.28939 -0.44442,0 -0.7183,0.28422 -0.27389,0.28422 -0.27389,0.72864 0,0.41858 0.28939,0.7183 0.28939,0.29972 0.7028,0.29972 0.43925,0 0.7183,-0.28422 0.27905,-0.28938 0.27905,-0.7338 z" />
        <path
           inkscape:connector-curvature="0"
           id="path3299"
           style="font-style:normal;font-variant:normal;font-weight:normal;font-stretch:normal;font-family:'Berlin Sans FB Demi';-inkscape-font-specification:'Berlin Sans FB Demi';fill:#ffffff;stroke:none;stroke-width:0.36500001;stroke-miterlimit:4;stroke-dasharray:none;stroke-opacity:1"
           d="m -148.00382,240.40975 q 0,0.15503 -0.0413,0.47026 -0.0362,0.31523 -0.0362,0.46509 0,0.14469 -0.031,0.18603 -0.031,0.0413 -0.17053,0.11886 -0.66663,0.3669 -1.47795,0.3669 -1.49345,0 -1.49345,-1.14205 0,-0.34106 0.0258,-1.02319 0.0258,-0.6873 0.0258,-1.02836 0,-0.22738 -0.26355,-0.22738 -0.0207,0 -0.0672,0 -0.0465,0.005 -0.0672,0.005 -0.19637,0 -0.19637,-0.13953 0,-0.0827 0.0103,-0.25321 0.0155,-0.17053 0.0155,-0.25322 0,-0.10852 -0.0155,-0.33073 -0.0103,-0.2222 -0.0103,-0.33072 0,-0.10336 0.33073,-0.11369 0.18603,-0.005 0.20154,-0.10336 0.031,-0.19637 0.0207,-0.62011 -0.0207,-0.66663 -0.0207,-0.63562 0,-0.59945 0.11369,-0.59945 0.13952,0 0.3979,0.062 0.29456,0.0672 0.40825,0.0775 0.26355,0.0362 0.79581,0.0982 0.1292,0.0103 0.1292,0.0879 0,0.20671 -0.0362,0.62529 -0.031,0.41858 -0.031,0.63045 0,0.25321 0.14986,0.25321 0.18087,0 0.54777,-0.0155 0.3669,-0.0155 0.55294,-0.0155 0.11368,0 0.11368,0.0775 0,0.11886 -0.0258,0.35657 -0.0258,0.23771 -0.0258,0.35657 0,0.12402 0.005,0.36173 0.005,0.23771 0.005,0.36174 0,0.10852 -0.14986,0.10852 -0.10335,0 -0.34623,-0.005 -0.24288,-0.0103 -0.34623,-0.0103 h -0.38758 q -0.0775,0 -0.0775,0.22737 0,0.12402 0,0.3669 0.005,0.24805 0.005,0.36691 0,0.43408 0.0982,0.59944 0.13953,0.22221 0.54777,0.22221 0.12919,0 0.36691,-0.0568 0.24287,-0.062 0.34106,-0.062 0.10852,0 0.10852,0.11368 z" />
        <path
           inkscape:connector-curvature="0"
           id="path3301"
           style="font-style:normal;font-variant:normal;font-weight:normal;font-stretch:normal;font-family:'Berlin Sans FB Demi';-inkscape-font-specification:'Berlin Sans FB Demi';fill:#ffffff;stroke:none;stroke-width:0.36500001;stroke-miterlimit:4;stroke-dasharray:none;stroke-opacity:1"
           d="m -142.13338,237.22649 q 0,0.3824 -0.0362,1.14721 -0.0362,0.76481 -0.0362,1.14722 0,0.37207 0.0258,1.11621 0.0258,0.74414 0.0258,1.11104 0,0.13953 -0.12919,0.1757 -0.19637,0.0517 -0.83199,0.0517 -0.56327,0 -0.78548,-0.031 -0.0982,-0.0155 -0.12403,-0.12402 -0.0155,-0.15503 -0.031,-0.31006 -0.0258,-0.23771 -0.0724,-0.23771 0.0724,0 -0.52193,0.3514 -0.59428,0.3514 -1.08004,0.3514 -1.36942,0 -1.62264,-1.23507 -0.11369,-0.5736 -0.11369,-1.66398 0,-1.17822 0.19121,-1.86035 0.0568,-0.21187 0.21187,-0.21187 0.23771,0 0.72347,0.005 0.48576,0.005 0.72347,0.005 0.1602,0 0.1602,0.13436 0,0.0362 -0.0103,0.10852 -0.10852,0.7028 -0.10852,1.42627 0,0.89917 0.0568,1.2299 0.093,0.56844 0.67696,0.56844 0.22737,0 0.49092,-0.20154 0.26872,-0.20153 0.27906,-0.41858 0.0103,-0.1912 0.0103,-2.59415 0,-0.17053 0.0258,-0.20154 0.031,-0.0517 0.18603,-0.0517 0.25322,0 0.75965,0.005 0.51159,0.005 0.76481,0.005 0.15503,0 0.18087,0.0775 0.0103,0.0413 0.0103,0.12403 z" />
        <path
           inkscape:connector-curvature="0"
           id="path3303"
           style="font-style:normal;font-variant:normal;font-weight:normal;font-stretch:normal;font-family:'Berlin Sans FB Demi';-inkscape-font-specification:'Berlin Sans FB Demi';fill:#ffffff;stroke:none;stroke-width:0.36500001;stroke-miterlimit:4;stroke-dasharray:none;stroke-opacity:1"
           d="m -137.84424,238.70443 q 0,0.20154 -0.2222,0.20154 -0.0982,0 -0.28939,-0.0103 -0.18604,-0.0155 -0.27906,-0.0155 -0.42891,0 -0.58394,0.13436 -0.15503,0.13436 -0.15503,0.5426 0,0.22221 0.005,0.67696 0.0103,0.44959 0.0103,0.6718 0,0.14986 0.0207,0.44958 0.0207,0.29456 0.0207,0.43925 0,0.12403 -0.17054,0.13953 -0.24804,0.0207 -0.75964,0.0207 -0.49093,0 -0.78548,-0.031 -0.17053,-0.0207 -0.17053,-0.17053 0,-0.41341 0.005,-1.23507 0.005,-0.82682 0.005,-1.24023 0,-1.2144 -0.22221,-1.99988 -0.0103,-0.0465 -0.0103,-0.0775 0,-0.0775 0.0775,-0.10335 0.28422,-0.031 0.83199,-0.11369 0.81649,-0.1602 0.84233,-0.1602 0.093,0 0.11885,0.32556 0.0258,0.32556 0.093,0.32556 -0.0724,0 0.42375,-0.26871 0.49609,-0.27389 0.95601,-0.27389 0.28939,0 0.28939,0.12402 0,0.14987 -0.031,0.42375 -0.031,0.29456 -0.0362,0.42375 0,0.14986 0.005,0.39791 0.0103,0.30489 0.0103,0.40307 z" />
        <path
           inkscape:connector-curvature="0"
           id="path3305"
           style="font-style:normal;font-variant:normal;font-weight:normal;font-stretch:normal;font-family:'Berlin Sans FB Demi';-inkscape-font-specification:'Berlin Sans FB Demi';fill:#ffffff;stroke:none;stroke-width:0.36500001;stroke-miterlimit:4;stroke-dasharray:none;stroke-opacity:1"
           d="m -132.50606,239.11784 q 0,0.52194 -0.3359,0.59428 -0.0568,0.0103 -1.0697,0.11369 -0.60978,0.0672 -1.81901,0.1602 0.0724,0.33589 0.43925,0.51159 0.29972,0.1447 0.68213,0.1447 0.45992,0 0.92501,-0.24805 0.19637,-0.12402 0.39274,-0.24805 0.10852,0.0517 0.36173,0.5271 0.25838,0.47543 0.25838,0.60462 0,0.0362 -0.0775,0.11885 -0.63045,0.67697 -1.95854,0.67697 -1.2299,0 -1.98437,-0.71831 -0.77515,-0.72863 -0.77515,-1.9482 0,-1.18856 0.69247,-1.9482 0.71313,-0.78548 1.89135,-0.78548 0.99219,0 1.68466,0.72347 0.69246,0.72347 0.69246,1.72082 z m -1.80868,-0.31522 q 0,-0.3204 -0.22737,-0.56328 -0.22738,-0.24287 -0.5426,-0.24287 -0.32557,0 -0.53744,0.27388 -0.19637,0.25321 -0.19637,0.59428 0,0.13953 0.14469,0.13953 0.38241,0 1.18856,-0.11886 0.17053,-0.0258 0.17053,-0.0827 z" />
      </g>
      <g
         id="text1495-0-7"
         style="font-style:normal;font-weight:normal;font-size:26.50398827px;line-height:1.25;font-family:sans-serif;letter-spacing:0px;word-spacing:0px;fill:#ffffff;fill-opacity:1;stroke:none;stroke-width:0.214;stroke-miterlimit:4;stroke-dasharray:none;stroke-opacity:1"
         transform="scale(0.9138889,1.0942249)"
         aria-label="Bee 'N' Me">
        <path
           inkscape:connector-curvature="0"
           id="path3308"
           style="font-style:normal;font-variant:normal;font-weight:normal;font-stretch:normal;font-family:'Berlin Sans FB Demi';-inkscape-font-specification:'Berlin Sans FB Demi';fill:#ffffff;stroke:none;stroke-width:0.214;stroke-miterlimit:4;stroke-dasharray:none;stroke-opacity:1"
           d="m -224.90391,202.96019 q 0,2.38122 -1.48826,3.94712 -1.69532,1.79886 -5.95304,1.79886 -0.32354,0 -0.93178,-0.0129 -0.62119,0 -0.91884,0 -4.77538,0 -5.68128,-0.19412 -0.3753,-0.0777 -0.3753,-0.40119 0,-1.38473 0.1553,-4.19301 0.16824,-2.80828 0.16824,-4.20596 0,-1.5012 -0.1553,-5.64245 -0.0388,-1.06119 -0.14235,-3.18358 l -0.013,-0.18118 q -0.0129,-0.24589 0.40119,-0.29765 0.42706,-0.0518 3.0024,-0.0518 4.12831,0 4.82714,0.0259 3.18359,0.11647 4.69773,1.03531 2.00592,1.22943 2.00592,4.15419 0,0.76354 -0.46589,1.61767 -0.33648,0.60825 -0.88002,1.21649 -0.47883,0.5306 -0.47883,0.49178 0,0.0906 0.33648,0.28471 0.9059,0.51765 1.42355,1.64356 0.46589,1.00942 0.46589,2.14827 z m -5.5648,-7.28601 q 0,-1.11296 -1.11296,-1.47532 -0.62119,-0.19412 -2.04474,-0.19412 -1.39767,0 -1.39767,0.20706 0,0.24589 -0.0518,0.7506 -0.0388,0.49178 -0.0388,0.73766 0,1.29414 0.22,1.44944 0.14236,0.11647 1.64356,0.11647 2.7824,0 2.7824,-1.59179 z m 0.38824,7.23424 q 0,-1.16472 -0.9706,-1.57885 -0.62119,-0.25883 -2.01886,-0.25883 -1.66944,0 -1.8118,0.12942 -0.14235,0.11647 -0.14235,1.57885 0,1.52708 0.16824,1.69532 0.16823,0.1553 1.86356,0.1553 1.39767,0 1.96709,-0.22001 0.94472,-0.3753 0.94472,-1.5012 z" />
        <path
           inkscape:connector-curvature="0"
           id="path3310"
           style="font-style:normal;font-variant:normal;font-weight:normal;font-stretch:normal;font-family:'Berlin Sans FB Demi';-inkscape-font-specification:'Berlin Sans FB Demi';fill:#ffffff;stroke:none;stroke-width:0.214;stroke-miterlimit:4;stroke-dasharray:none;stroke-opacity:1"
           d="m -211.50956,201.52369 q 0,1.30708 -0.84119,1.48826 -0.14235,0.0259 -2.67887,0.28471 -1.52708,0.16824 -4.55537,0.40119 0.18118,0.84119 1.10002,1.2812 0.7506,0.36236 1.70826,0.36236 1.15179,0 2.31651,-0.62119 0.49178,-0.3106 0.98355,-0.62119 0.27177,0.12942 0.9059,1.32002 0.64707,1.19061 0.64707,1.51415 0,0.0906 -0.19412,0.29765 -1.57885,1.69532 -4.90479,1.69532 -3.08006,0 -4.9695,-1.79885 -1.94121,-1.82474 -1.94121,-4.87891 0,-2.97652 1.73415,-4.87891 1.78591,-1.96709 4.73655,-1.96709 2.48475,0 4.21889,1.8118 1.73415,1.81179 1.73415,4.30948 z m -4.52949,-0.78942 q 0,-0.80237 -0.56942,-1.41062 -0.56942,-0.60824 -1.35885,-0.60824 -0.8153,0 -1.3459,0.68589 -0.49178,0.63413 -0.49178,1.48826 0,0.34942 0.36236,0.34942 0.95767,0 2.97653,-0.29765 0.42706,-0.0647 0.42706,-0.20706 z" />
        <path
           inkscape:connector-curvature="0"
           id="path3312"
           style="font-style:normal;font-variant:normal;font-weight:normal;font-stretch:normal;font-family:'Berlin Sans FB Demi';-inkscape-font-specification:'Berlin Sans FB Demi';fill:#ffffff;stroke:none;stroke-width:0.214;stroke-miterlimit:4;stroke-dasharray:none;stroke-opacity:1"
           d="m -198.2058,201.52369 q 0,1.30708 -0.84119,1.48826 -0.14236,0.0259 -2.67887,0.28471 -1.52709,0.16824 -4.55537,0.40119 0.18118,0.84119 1.10002,1.2812 0.7506,0.36236 1.70826,0.36236 1.15179,0 2.31651,-0.62119 0.49177,-0.3106 0.98355,-0.62119 0.27177,0.12942 0.9059,1.32002 0.64707,1.19061 0.64707,1.51415 0,0.0906 -0.19412,0.29765 -1.57886,1.69532 -4.9048,1.69532 -3.08005,0 -4.96949,-1.79885 -1.94121,-1.82474 -1.94121,-4.87891 0,-2.97652 1.73414,-4.87891 1.78592,-1.96709 4.73656,-1.96709 2.48475,0 4.21889,1.8118 1.73415,1.81179 1.73415,4.30948 z m -4.52949,-0.78942 q 0,-0.80237 -0.56942,-1.41062 -0.56942,-0.60824 -1.35885,-0.60824 -0.81531,0 -1.3459,0.68589 -0.49178,0.63413 -0.49178,1.48826 0,0.34942 0.36236,0.34942 0.95767,0 2.97652,-0.29765 0.42707,-0.0647 0.42707,-0.20706 z" />
        <path
           inkscape:connector-curvature="0"
           id="path3314"
           style="font-style:normal;font-variant:normal;font-weight:normal;font-stretch:normal;font-family:'Berlin Sans FB Demi';-inkscape-font-specification:'Berlin Sans FB Demi';fill:#ffffff;stroke:none;stroke-width:0.214;stroke-miterlimit:4;stroke-dasharray:none;stroke-opacity:1"
           d="m -186.04088,192.72354 q 0,2.14827 -0.94473,4.67185 -0.0906,0.23294 -0.29765,0.25882 -0.31059,0.0518 -0.84119,0.0518 -0.3753,0 -0.7506,-0.0518 -0.55648,-0.0776 -0.99649,-2.4071 -0.34942,-1.85062 -0.34942,-2.91181 v -1.59179 q 0,-0.29766 0.1553,-0.34942 0.22001,-0.0777 1.85062,-0.0777 1.76003,0 1.94121,0.0777 0.23295,0.10353 0.23295,2.32945 z" />
        <path
           inkscape:connector-curvature="0"
           id="path3316"
           style="font-style:normal;font-variant:normal;font-weight:normal;font-stretch:normal;font-family:'Berlin Sans FB Demi';-inkscape-font-specification:'Berlin Sans FB Demi';fill:#ffffff;stroke:none;stroke-width:0.214;stroke-miterlimit:4;stroke-dasharray:none;stroke-opacity:1"
           d="m -166.56408,190.79527 q 0,1.47532 -0.12941,4.4389 -0.11647,2.95064 -0.11647,4.4389 v 8.52838 q 0,0.34942 -0.3753,0.34942 -0.3106,0 -0.94472,0.0259 -0.62119,0.0259 -0.93179,0.0259 -0.33647,0 -1.00942,-0.0518 -0.67296,-0.0518 -1.00943,-0.0518 -0.23295,0 -0.55648,-0.42707 -0.93179,-1.25531 -4.19302,-5.5648 -0.89295,-1.20355 -2.71769,-3.54594 -0.0518,-0.0777 -0.19412,-0.1553 -0.10353,0.0906 -0.10353,0.28471 0,1.5012 0.0776,4.50361 0.0906,3.0024 0.0906,4.5036 0,0.45295 -0.34941,0.45295 h -4.47773 q -0.3753,0 -0.3753,-0.40118 0,-1.39767 0.12941,-4.2189 0.14236,-2.82122 0.14236,-4.23184 0,-1.48826 -0.12941,-4.45184 -0.11648,-2.96358 -0.11648,-4.4389 0,-0.28471 0.50472,-0.28471 0.7506,0 1.85062,-0.10353 0.25883,-0.0259 1.02237,-0.16824 0.64707,-0.11647 1.02237,-0.11647 0.1553,0 0.47883,0.44001 l 4.82714,6.61305 q 0.64707,0.89296 1.95416,2.61417 0.32353,0.40118 0.55648,0.40118 0.16823,0 0.16823,-1.00943 0,-1.35885 -0.15529,-4.08948 -0.14236,-2.73064 -0.14236,-4.10243 0,-0.47883 0.27177,-0.47883 0.77649,0 2.34239,-0.0647 1.56591,-0.0647 2.3424,-0.0647 0.24588,0 0.24588,0.40118 z" />
        <path
           inkscape:connector-curvature="0"
           id="path3318"
           style="font-style:normal;font-variant:normal;font-weight:normal;font-stretch:normal;font-family:'Berlin Sans FB Demi';-inkscape-font-specification:'Berlin Sans FB Demi';fill:#ffffff;stroke:none;stroke-width:0.214;stroke-miterlimit:4;stroke-dasharray:none;stroke-opacity:1"
           d="m -160.15808,192.72354 q 0,2.14827 -0.94472,4.67185 -0.0906,0.23294 -0.29765,0.25882 -0.3106,0.0518 -0.84119,0.0518 -0.3753,0 -0.75061,-0.0518 -0.55648,-0.0776 -0.99648,-2.4071 -0.34942,-1.85062 -0.34942,-2.91181 v -1.59179 q 0,-0.29766 0.1553,-0.34942 0.22,-0.0777 1.85062,-0.0777 1.76003,0 1.94121,0.0777 0.23294,0.10353 0.23294,2.32945 z" />
        <path
           inkscape:connector-curvature="0"
           id="path3320"
           style="font-style:normal;font-variant:normal;font-weight:normal;font-stretch:normal;font-family:'Berlin Sans FB Demi';-inkscape-font-specification:'Berlin Sans FB Demi';fill:#ffffff;stroke:none;stroke-width:0.214;stroke-miterlimit:4;stroke-dasharray:none;stroke-opacity:1"
           d="m -132.07524,208.14969 q 0,0.40118 -0.3753,0.40118 h -4.58126 q -0.3753,0 -0.3753,-0.45295 0,-1.30708 0.0906,-3.92124 0.10353,-2.61416 0.10353,-3.92124 0,-0.37531 -0.11647,-0.40119 -0.14235,0.0777 -1.73415,3.99889 -0.93178,2.30357 -1.86356,4.5942 -0.12941,0.29765 -0.32353,0.34942 -0.0647,0.0129 -0.51766,0.0129 -0.67295,0 -0.80237,-0.25883 -0.69883,-1.42355 -1.83768,-4.14125 -1.21649,-2.87299 -1.82473,-4.15418 -0.0259,-0.0647 -0.11648,-0.14236 -0.0906,0.11647 -0.0906,0.3753 0,1.26826 0.0647,3.80477 0.0647,2.53652 0.0647,3.80477 0,0.45295 -0.36236,0.45295 h -4.32243 q -0.25883,0 -0.32353,-0.0777 -0.0518,-0.0906 -0.0518,-0.29765 0,-1.41061 0.12942,-4.23184 0.14235,-2.83416 0.14235,-4.24478 0,-1.5012 -0.12941,-5.6295 -0.0129,-1.07414 -0.11648,-3.19653 l -0.0129,-0.22 q -0.0129,-0.25883 0.54354,-0.25883 0.71178,0 2.13533,-0.0388 1.42356,-0.0518 2.13533,-0.0518 0.14236,0 0.40119,0.54354 l 3.77889,8.29543 q 0.40118,0.8412 0.67295,0.8412 0.14235,0 0.60824,-0.97061 1.30709,-2.71769 3.86948,-8.19191 0.22001,-0.50471 0.47884,-0.50471 0.3753,0 1.1259,0.0388 0.76354,0.0388 1.15178,0.0388 0.32354,0 0.98355,-0.0647 0.67295,-0.0647 0.99649,-0.0647 0.38824,0 0.38824,0.3106 0,1.52708 -0.11647,4.56831 -0.10354,3.02829 -0.10354,4.55537 0,1.41062 0.11648,4.23184 0.11647,2.82123 0.11647,4.2189 z" />
        <path
           inkscape:connector-curvature="0"
           id="path3322"
           style="font-style:normal;font-variant:normal;font-weight:normal;font-stretch:normal;font-family:'Berlin Sans FB Demi';-inkscape-font-specification:'Berlin Sans FB Demi';fill:#ffffff;stroke:none;stroke-width:0.214;stroke-miterlimit:4;stroke-dasharray:none;stroke-opacity:1"
           d="m -117.91735,201.52369 q 0,1.30708 -0.84119,1.48826 -0.14235,0.0259 -2.67887,0.28471 -1.52708,0.16824 -4.55537,0.40119 0.18118,0.84119 1.10002,1.2812 0.7506,0.36236 1.70826,0.36236 1.15179,0 2.31651,-0.62119 0.49178,-0.3106 0.98355,-0.62119 0.27177,0.12942 0.9059,1.32002 0.64707,1.19061 0.64707,1.51415 0,0.0906 -0.19412,0.29765 -1.57885,1.69532 -4.90479,1.69532 -3.08006,0 -4.9695,-1.79885 -1.94121,-1.82474 -1.94121,-4.87891 0,-2.97652 1.73415,-4.87891 1.78591,-1.96709 4.73655,-1.96709 2.48475,0 4.2189,1.8118 1.73414,1.81179 1.73414,4.30948 z m -4.52949,-0.78942 q 0,-0.80237 -0.56942,-1.41062 -0.56942,-0.60824 -1.35885,-0.60824 -0.8153,0 -1.3459,0.68589 -0.49177,0.63413 -0.49177,1.48826 0,0.34942 0.36235,0.34942 0.95767,0 2.97653,-0.29765 0.42706,-0.0647 0.42706,-0.20706 z" />
      </g>
      <path
         inkscape:connector-curvature="0"
         id="rect1555-1"
         d="m -186.05022,172.37643 h 4.69652 v 31.53283 h -4.69652 z"
         style="opacity:1;fill:#ffffff;fill-opacity:1;stroke:none;stroke-width:0.20419852;stroke-miterlimit:4;stroke-dasharray:none;stroke-dashoffset:0;stroke-opacity:1" />
      <path
         inkscape:connector-curvature="0"
         id="rect1555-8-6"
         d="m -152.03296,172.37584 h 4.69771 v 31.15604 h -4.69771 z"
         style="opacity:1;fill:#ffffff;fill-opacity:1;stroke:none;stroke-width:0.20300077;stroke-miterlimit:4;stroke-dasharray:none;stroke-dashoffset:0;stroke-opacity:1" />
      <path
         inkscape:connector-curvature="0"
         id="rect1555-4-2"
         d="m -169.02737,163.31892 h 4.66869 v 40.95441 h -4.66869 z"
         style="opacity:1;fill:#ffffff;fill-opacity:1;stroke:none;stroke-width:0.23202308;stroke-miterlimit:4;stroke-dasharray:none;stroke-dashoffset:0;stroke-opacity:1" />
      <path
         inkscape:connector-curvature="0"
         id="rect1555-6-4"
         d="m -183.40437,-276.85867 h 4.69651 v 31.53282 h -4.69651 z"
         style="opacity:1;fill:#ffffff;fill-opacity:1;stroke:none;stroke-width:0.20419852;stroke-miterlimit:4;stroke-dasharray:none;stroke-dashoffset:0;stroke-opacity:1"
         transform="scale(1,-1)" />
      <path
         inkscape:connector-curvature="0"
         id="rect1555-8-5-4"
         d="m -152.78891,-276.85928 h 4.69771 v 31.15604 h -4.69771 z"
         style="opacity:1;fill:#ffffff;fill-opacity:1;stroke:none;stroke-width:0.20300077;stroke-miterlimit:4;stroke-dasharray:none;stroke-dashoffset:0;stroke-opacity:1"
         transform="scale(1,-1)" />
      <path
         inkscape:connector-curvature="0"
         id="rect1555-4-1-3"
         d="m -168.27142,-286.29419 h 4.66869 v 40.95441 h -4.66869 z"
         style="opacity:1;fill:#ffffff;fill-opacity:1;stroke:none;stroke-width:0.23202308;stroke-miterlimit:4;stroke-dasharray:none;stroke-dashoffset:0;stroke-opacity:1"
         transform="scale(1,-1)" />
      <path
         inkscape:connector-curvature="0"
         id="rect1599-4"
         d="m -199.95493,188.33183 h 4.15774 v 15.49703 h -4.15774 z"
         style="opacity:1;fill:#ffffff;fill-opacity:1;stroke:none;stroke-width:0.36500001;stroke-miterlimit:4;stroke-dasharray:none;stroke-dashoffset:0;stroke-opacity:1" />
      <path
         inkscape:connector-curvature="0"
         id="rect1599-2-6"
         d="m -137.71115,245.49619 h 4.15774 v 15.49702 h -4.15774 z"
         style="opacity:1;fill:#ffffff;fill-opacity:1;stroke:none;stroke-width:0.36500001;stroke-miterlimit:4;stroke-dasharray:none;stroke-dashoffset:0;stroke-opacity:1" />
      <path
         inkscape:connector-curvature="0"
         id="rect1599-5-6"
         d="m -200.07721,245.4962 h 4.15774 v 15.49703 h -4.15774 z"
         style="opacity:1;fill:#ffffff;fill-opacity:1;stroke:none;stroke-width:0.36500001;stroke-miterlimit:4;stroke-dasharray:none;stroke-dashoffset:0;stroke-opacity:1" />
      <path
         inkscape:connector-curvature="0"
         id="rect1599-50-3"
         d="m -137.33316,186.90988 h 4.15774 v 15.49703 h -4.15774 z"
         style="opacity:1;fill:#ffffff;fill-opacity:1;stroke:none;stroke-width:0.36500001;stroke-miterlimit:4;stroke-dasharray:none;stroke-dashoffset:0;stroke-opacity:1" />
    </g>
  </g>
</svg>
